<?xml version="1.0" encoding="UTF-8" standalone="no"?>
<svg width="60px" height="91px" viewBox="0 0 60 91" version="1.1" xmlns="http://www.w3.org/2000/svg" xmlns:xlink="http://www.w3.org/1999/xlink" xmlns:sketch="http://www.bohemiancoding.com/sketch/ns">
    <!-- Generator: Sketch 3.5.2 (25235) - http://www.bohemiancoding.com/sketch -->
    <title>Slice 1</title>
    <desc>Created with Sketch.</desc>
    <defs></defs>
    <g id="Page-1" stroke="none" stroke-width="1" fill="none" fill-rule="evenodd" sketch:type="MSPage">
        <g id="map-marker" sketch:type="MSLayerGroup">
            <path d="M29.6695366,9.5434265 C40.6737671,9.5434265 49.5900345,18.4619026 49.5900345,29.4662056 C49.5900345,40.4693375 40.6737671,49.3866386 29.6695366,49.3866386 C18.6653061,49.3866386 9.7478714,40.4693374 9.7478714,29.4662056 C9.7478714,18.4619026 18.6653023,9.5434265 29.6695366,9.5434265 L29.6695366,9.5434265 Z" id="Path" fill="#FFFFFF" sketch:type="MSShapeGroup"></path>
            <path d="M29.6695366,17.1331024 C22.858429,17.1331024 17.3363838,22.6539402 17.3363838,29.4662056 C17.3363838,36.2762184 22.8584289,41.7970657 29.6695366,41.7970657 C36.4794769,41.7970657 42.0015221,36.2762184 42.0015221,29.4662056 C42.0015221,22.6539402 36.4794769,17.1331024 29.6695366,17.1331024 L29.6695366,17.1331024 Z M32.6336823,90.4849777 C34.5854569,68.2291107 59.075821,48.2859459 59.075821,28.9339866 C59.075821,12.9797153 45.9108811,0.0586852 29.6695367,0.0586852 C13.4269105,0.0586852 0.2619668,12.9797152 0.2619668,28.9339866 C0.2619668,48.2859458 24.980446,68.2291107 26.8234483,90.4849777 L32.6336823,90.4849777 L32.6336823,90.4849777 Z M29.6695366,9.5434265 C40.6737671,9.5434265 49.5900345,18.4619026 49.5900345,29.4662056 C49.5900345,40.4693375 40.6737671,49.3866386 29.6695366,49.3866386 C18.6653061,49.3866386 9.7478714,40.4693374 9.7478714,29.4662056 C9.7478714,18.4619026 18.6653023,9.5434265 29.6695366,9.5434265 L29.6695366,9.5434265 Z" id="Shape" fill="#F62459" sketch:type="MSShapeGroup"></path>
        </g>
    </g>
</svg>